<svg width="21" height="20" viewBox="0 0 21 20" fill="none" xmlns="http://www.w3.org/2000/svg">
<path d="M9.33496 10.8333H5.1683C4.93219 10.8333 4.73441 10.7533 4.57496 10.5933C4.41552 10.4333 4.33552 10.2355 4.33496 9.99999C4.33441 9.76444 4.41441 9.56666 4.57496 9.40666C4.73552 9.24666 4.9333 9.16666 5.1683 9.16666H9.33496V4.99999C9.33496 4.76388 9.41496 4.5661 9.57496 4.40666C9.73496 4.24722 9.93274 4.16721 10.1683 4.16666C10.4039 4.1661 10.6019 4.2461 10.7625 4.40666C10.923 4.56721 11.0027 4.76499 11.0016 4.99999V9.16666H15.1683C15.4044 9.16666 15.6025 9.24666 15.7625 9.40666C15.9225 9.56666 16.0022 9.76444 16.0016 9.99999C16.0011 10.2355 15.9211 10.4336 15.7616 10.5942C15.6022 10.7547 15.4044 10.8344 15.1683 10.8333H11.0016V15C11.0016 15.2361 10.9216 15.4342 10.7616 15.5942C10.6016 15.7542 10.4039 15.8339 10.1683 15.8333C9.93274 15.8328 9.73496 15.7528 9.57496 15.5933C9.41496 15.4339 9.33496 15.2361 9.33496 15V10.8333Z" fill="white"/>
</svg>
