<svg width="13" height="14" viewBox="0 0 13 14" fill="none" xmlns="http://www.w3.org/2000/svg">
<path d="M6.5 11.6667L9.38888 8.55556L8.37777 7.46667L7.22222 8.71111V5.44445H5.77777V8.71111L4.62222 7.46667L3.61111 8.55556L6.5 11.6667ZM1.44444 3.88889V12.4444H11.5555V3.88889H1.44444ZM1.44444 14C1.04722 14 0.707296 13.8478 0.424666 13.5434C0.142037 13.2391 0.000481481 12.8727 0 12.4444V2.74167C0 2.56019 0.0272036 2.38519 0.081611 2.21667C0.136018 2.04815 0.217148 1.8926 0.325 1.75L1.22778 0.563893C1.36018 0.382411 1.52557 0.24293 1.72394 0.145449C1.92231 0.0479671 2.13007 -0.000514403 2.34722 4.11522e-06H10.6528C10.8694 4.11522e-06 11.0772 0.0487448 11.2761 0.146226C11.4749 0.243708 11.6403 0.38293 11.7722 0.563893L12.675 1.75C12.7833 1.8926 12.8647 2.04815 12.9191 2.21667C12.9735 2.38519 13.0005 2.56019 13 2.74167V12.4444C13 12.8722 12.8587 13.2386 12.576 13.5434C12.2934 13.8483 11.9533 14.0005 11.5555 14H1.44444ZM1.73333 2.33334H11.2667L10.6528 1.55556H2.34722L1.73333 2.33334Z" fill="white"/>
</svg>
