<svg width="25" height="25" viewBox="0 0 25 25" fill="none" xmlns="http://www.w3.org/2000/svg">
<path d="M20.8334 17.7083V7.29167C20.8334 5.03333 17.0178 3.125 12.5001 3.125C7.98237 3.125 4.16675 5.03333 4.16675 7.29167V17.7083C4.16675 19.9667 7.98237 21.875 12.5001 21.875C17.0178 21.875 20.8334 19.9667 20.8334 17.7083ZM12.5001 5.20833C16.3449 5.20833 18.6782 6.77812 18.7501 7.28542C18.6782 7.80521 16.3449 9.375 12.5001 9.375C8.65529 9.375 6.32196 7.80521 6.25008 7.29792C6.32196 6.77812 8.65529 5.20833 12.5001 5.20833ZM6.25008 10.0073C7.79071 10.8896 10.0386 11.4583 12.5001 11.4583C14.9615 11.4583 17.2095 10.8896 18.7501 10.0073V12.4938C18.6782 13.0135 16.3449 14.5833 12.5001 14.5833C8.65529 14.5833 6.32196 13.0135 6.25008 12.5V10.0073ZM6.25008 17.7083V15.2156C7.79071 16.0979 10.0386 16.6667 12.5001 16.6667C14.9615 16.6667 17.2095 16.0979 18.7501 15.2156V17.7021C18.6782 18.2219 16.3449 19.7917 12.5001 19.7917C8.65529 19.7917 6.32196 18.2219 6.25008 17.7083Z" fill="white"/>
</svg>
