<svg width="14" height="14" viewBox="0 0 14 14" fill="none" xmlns="http://www.w3.org/2000/svg">
<g clip-path="url(#clip0_88_55)">
<path fill-rule="evenodd" clip-rule="evenodd" d="M5.03125 2.625V1.3125H8.96875V2.625H5.03125ZM3.71875 2.625V0.875C3.71875 0.642936 3.81094 0.420376 3.97503 0.256282C4.13913 0.0921872 4.36169 0 4.59375 0L9.40625 0C9.63831 0 9.86087 0.0921872 10.025 0.256282C10.1891 0.420376 10.2812 0.642936 10.2812 0.875V2.625H12.4688C12.6428 2.625 12.8097 2.69414 12.9328 2.81721C13.0559 2.94028 13.125 3.1072 13.125 3.28125C13.125 3.4553 13.0559 3.62222 12.9328 3.74529C12.8097 3.86836 12.6428 3.9375 12.4688 3.9375H12.1494L11.4993 12.3839C11.4655 12.8235 11.2671 13.2342 10.9436 13.5339C10.6201 13.8335 10.1954 14 9.7545 14H4.2455C3.80457 14 3.3799 13.8335 3.05641 13.5339C2.73293 13.2342 2.53448 12.8235 2.50075 12.3839L1.85063 3.9375H1.53125C1.3572 3.9375 1.19028 3.86836 1.06721 3.74529C0.94414 3.62222 0.875 3.4553 0.875 3.28125C0.875 3.1072 0.94414 2.94028 1.06721 2.81721C1.19028 2.69414 1.3572 2.625 1.53125 2.625H3.71875ZM3.1675 3.9375H10.8325L10.1903 12.2832C10.1819 12.3931 10.1323 12.4958 10.0516 12.5707C9.97078 12.6457 9.86469 12.6874 9.7545 12.6875H4.2455C4.13531 12.6874 4.02922 12.6457 3.94844 12.5707C3.86765 12.4958 3.81812 12.3931 3.80975 12.2832L3.1675 3.9375Z" fill="white"/>
</g>
<defs>
<clipPath id="clip0_88_55">
<rect width="14" height="14" fill="white"/>
</clipPath>
</defs>
</svg>
