<svg width="25" height="25" viewBox="0 0 25 25" fill="none" xmlns="http://www.w3.org/2000/svg">
<path d="M12.5001 12.5C11.3542 12.5 10.3733 12.092 9.55737 11.2761C8.7414 10.4601 8.33341 9.47919 8.33341 8.33335C8.33341 7.18752 8.7414 6.20662 9.55737 5.39065C10.3733 4.57467 11.3542 4.16669 12.5001 4.16669C13.6459 4.16669 14.6268 4.57467 15.4428 5.39065C16.2588 6.20662 16.6667 7.18752 16.6667 8.33335C16.6667 9.47919 16.2588 10.4601 15.4428 11.2761C14.6268 12.092 13.6459 12.5 12.5001 12.5ZM4.16675 20.8334V17.9167C4.16675 17.3264 4.31866 16.7839 4.62248 16.2891C4.9263 15.7943 5.32994 15.4167 5.83341 15.1563C6.9098 14.6181 8.00355 14.2144 9.11466 13.9453C10.2258 13.6762 11.3542 13.5417 12.5001 13.5417C13.6459 13.5417 14.7744 13.6762 15.8855 13.9453C16.9966 14.2144 18.0904 14.6181 19.1667 15.1563C19.6702 15.4167 20.0739 15.7943 20.3777 16.2891C20.6815 16.7839 20.8334 17.3264 20.8334 17.9167V20.8334H4.16675ZM6.25008 18.75H18.7501V17.9167C18.7501 17.7257 18.7023 17.5521 18.6069 17.3959C18.5114 17.2396 18.3855 17.1181 18.2292 17.0313C17.2917 16.5625 16.3456 16.211 15.3907 15.9766C14.4358 15.7422 13.4723 15.625 12.5001 15.625C11.5279 15.625 10.5643 15.7422 9.60946 15.9766C8.65459 16.211 7.70841 16.5625 6.77091 17.0313C6.61466 17.1181 6.4888 17.2396 6.39331 17.3959C6.29782 17.5521 6.25008 17.7257 6.25008 17.9167V18.75ZM12.5001 10.4167C13.073 10.4167 13.5634 10.2127 13.9714 9.80471C14.3794 9.39672 14.5834 8.90627 14.5834 8.33335C14.5834 7.76044 14.3794 7.26999 13.9714 6.862C13.5634 6.45401 13.073 6.25002 12.5001 6.25002C11.9272 6.25002 11.4367 6.45401 11.0287 6.862C10.6207 7.26999 10.4167 7.76044 10.4167 8.33335C10.4167 8.90627 10.6207 9.39672 11.0287 9.80471C11.4367 10.2127 11.9272 10.4167 12.5001 10.4167Z" fill="white"/>
</svg>
