<svg width="26" height="26" viewBox="0 0 26 26" fill="none" xmlns="http://www.w3.org/2000/svg">
<path d="M10.1656 17.1347C8.2878 17.1347 6.6987 16.4842 5.39835 15.1831C4.09799 13.8821 3.44747 12.293 3.44678 10.4158C3.44609 8.53869 4.09661 6.94959 5.39835 5.64855C6.70008 4.3475 8.28918 3.69698 10.1656 3.69698C12.0421 3.69698 13.6315 4.3475 14.934 5.64855C16.2364 6.94959 16.8866 8.53869 16.8845 10.4158C16.8845 11.1739 16.7639 11.8888 16.5227 12.5607C16.2815 13.2326 15.9542 13.8269 15.5407 14.3438L21.3293 20.1323C21.5188 20.3218 21.6135 20.563 21.6135 20.8559C21.6135 21.1488 21.5188 21.39 21.3293 21.5795C21.1398 21.769 20.8986 21.8637 20.6057 21.8637C20.3128 21.8637 20.0716 21.769 19.8821 21.5795L14.0936 15.7909C13.5767 16.2044 12.9824 16.5317 12.3105 16.7729C11.6386 17.0141 10.9237 17.1347 10.1656 17.1347ZM10.1656 15.0673C11.4577 15.0673 12.5562 14.6153 13.461 13.7112C14.3658 12.8071 14.8178 11.7086 14.8172 10.4158C14.8165 9.12306 14.3644 8.02495 13.461 7.12153C12.5575 6.2181 11.4591 5.76569 10.1656 5.76432C8.87217 5.76294 7.77407 6.21534 6.87133 7.12153C5.96859 8.02771 5.51619 9.12581 5.51412 10.4158C5.51205 11.7059 5.96445 12.8043 6.87133 13.7112C7.7782 14.618 8.8763 15.0701 10.1656 15.0673Z" fill="#1460A2"/>
</svg>
