<svg width="16" height="16" viewBox="0 0 16 16" fill="none" xmlns="http://www.w3.org/2000/svg">
<path d="M14.3628 7.36334C14.5655 7.64734 14.6668 7.79001 14.6668 8.00001C14.6668 8.21068 14.5655 8.35268 14.3628 8.63668C13.4522 9.91401 11.1262 12.6667 8.00016 12.6667C4.8735 12.6667 2.54816 9.91334 1.6375 8.63668C1.43483 8.35268 1.3335 8.21001 1.3335 8.00001C1.3335 7.78934 1.43483 7.64734 1.6375 7.36334C2.54816 6.08601 4.87416 3.33334 8.00016 3.33334C11.1268 3.33334 13.4522 6.08668 14.3628 7.36334Z" stroke="white" stroke-width="1.5" stroke-linecap="round" stroke-linejoin="round"/>
<path d="M10 8C10 7.46957 9.78929 6.96086 9.41421 6.58579C9.03914 6.21071 8.53043 6 8 6C7.46957 6 6.96086 6.21071 6.58579 6.58579C6.21071 6.96086 6 7.46957 6 8C6 8.53043 6.21071 9.03914 6.58579 9.41421C6.96086 9.78929 7.46957 10 8 10C8.53043 10 9.03914 9.78929 9.41421 9.41421C9.78929 9.03914 10 8.53043 10 8Z" stroke="white" stroke-width="1.5" stroke-linecap="round" stroke-linejoin="round"/>
</svg>
